<mxfile host="app.diagrams.net" modified="2024-06-13T10:16:56.738Z" agent="Mozilla/5.0 (Windows NT 10.0; Win64; x64) AppleWebKit/537.36 (KHTML, like Gecko) Chrome/120.0.0.0 Safari/537.36" etag="bKYeoUZMc3JJEUn6H4nf" version="24.5.4" type="device">
  <diagram name="Page-1" id="4tiNaB7mlLxki41o9yBj">
    <mxGraphModel dx="1050" dy="565" grid="1" gridSize="10" guides="1" tooltips="1" connect="1" arrows="1" fold="1" page="1" pageScale="1" pageWidth="850" pageHeight="1100" math="0" shadow="0">
      <root>
        <mxCell id="0" />
        <mxCell id="1" parent="0" />
        <mxCell id="WcYQvjiLwowIPPXUkftp-1" value="&amp;lt;&amp;lt;device&amp;gt;&amp;gt;&lt;div&gt;&lt;b&gt;Klijent PC&lt;/b&gt;&lt;/div&gt;" style="verticalAlign=top;align=left;spacingTop=8;spacingLeft=2;spacingRight=12;shape=cube;size=10;direction=south;fontStyle=4;html=1;whiteSpace=wrap;" parent="1" vertex="1">
          <mxGeometry x="40" y="40" width="210" height="170" as="geometry" />
        </mxCell>
        <mxCell id="WcYQvjiLwowIPPXUkftp-6" value="&amp;lt;&amp;lt;artifact&amp;gt;&amp;gt;&lt;br&gt;&lt;br&gt;&lt;b&gt;Web Preglednik&lt;/b&gt;" style="html=1;align=center;verticalAlign=middle;dashed=0;whiteSpace=wrap;" parent="1" vertex="1">
          <mxGeometry x="55" y="120" width="180" height="60" as="geometry" />
        </mxCell>
        <mxCell id="WcYQvjiLwowIPPXUkftp-9" value="&amp;lt;&amp;lt;platform&amp;gt;&amp;gt;&lt;div&gt;&lt;b&gt;Heroku&lt;/b&gt;&lt;/div&gt;" style="verticalAlign=top;align=left;spacingTop=8;spacingLeft=2;spacingRight=12;shape=cube;size=10;direction=south;fontStyle=4;html=1;whiteSpace=wrap;" parent="1" vertex="1">
          <mxGeometry x="490" y="40" width="210" height="170" as="geometry" />
        </mxCell>
        <mxCell id="WcYQvjiLwowIPPXUkftp-10" value="&amp;lt;&amp;lt;artifact&amp;gt;&amp;gt;&lt;br&gt;&lt;br&gt;&lt;b&gt;Vue.js Frontend&lt;/b&gt;" style="html=1;align=center;verticalAlign=middle;dashed=0;whiteSpace=wrap;" parent="1" vertex="1">
          <mxGeometry x="505" y="120" width="180" height="60" as="geometry" />
        </mxCell>
        <mxCell id="WcYQvjiLwowIPPXUkftp-11" style="edgeStyle=orthogonalEdgeStyle;rounded=0;orthogonalLoop=1;jettySize=auto;html=1;exitX=0;exitY=0;exitDx=80;exitDy=0;exitPerimeter=0;endArrow=none;endFill=0;" parent="1" source="WcYQvjiLwowIPPXUkftp-1" edge="1">
          <mxGeometry relative="1" as="geometry">
            <mxPoint x="488" y="120" as="targetPoint" />
          </mxGeometry>
        </mxCell>
        <mxCell id="WcYQvjiLwowIPPXUkftp-12" value="&amp;lt;&amp;lt;protocol&amp;gt;&amp;gt;&lt;div&gt;HTTPS&lt;/div&gt;" style="text;html=1;align=center;verticalAlign=middle;resizable=0;points=[];autosize=1;strokeColor=none;fillColor=none;" parent="1" vertex="1">
          <mxGeometry x="305" y="123" width="90" height="40" as="geometry" />
        </mxCell>
        <mxCell id="WcYQvjiLwowIPPXUkftp-13" value="&lt;div style=&quot;text-align: center;&quot;&gt;&lt;span style=&quot;background-color: initial; white-space: pre;&quot;&gt;&#x9;&lt;/span&gt;&lt;span style=&quot;background-color: initial; white-space: pre;&quot;&gt;&#x9;&lt;/span&gt;&lt;span style=&quot;background-color: initial; white-space: pre;&quot;&gt;&#x9;&lt;/span&gt;&lt;span style=&quot;background-color: initial; white-space: pre;&quot;&gt;&#x9;&lt;/span&gt;&lt;span style=&quot;background-color: initial; white-space: pre;&quot;&gt;&#x9;&lt;/span&gt;&lt;span style=&quot;background-color: initial; white-space: pre;&quot;&gt;&#x9;&lt;/span&gt;&lt;span style=&quot;background-color: initial; white-space: pre;&quot;&gt;&#x9;&lt;/span&gt;&lt;span style=&quot;background-color: initial; white-space: pre;&quot;&gt;&#x9;&lt;/span&gt;&lt;span style=&quot;background-color: initial; white-space: pre;&quot;&gt;&#x9;&lt;/span&gt;&lt;span style=&quot;background-color: initial; white-space: pre;&quot;&gt;&#x9;&lt;/span&gt;&lt;span style=&quot;background-color: initial; white-space: pre;&quot;&gt;&#x9;&lt;/span&gt;&lt;span style=&quot;background-color: initial; white-space: pre;&quot;&gt;&#x9;&lt;/span&gt;&lt;span style=&quot;background-color: initial; white-space: pre;&quot;&gt;&#x9;&lt;/span&gt;&lt;span style=&quot;background-color: initial; white-space: pre;&quot;&gt;&#x9;&lt;/span&gt;&lt;span style=&quot;background-color: initial; white-space: pre;&quot;&gt;&#x9;&lt;/span&gt;&lt;span style=&quot;background-color: initial;&quot;&gt;&amp;lt;&amp;lt;platform&amp;gt;&amp;gt;&lt;/span&gt;&lt;/div&gt;&lt;div style=&quot;text-align: center;&quot;&gt;&lt;span style=&quot;white-space: pre;&quot;&gt;&#x9;&lt;/span&gt;&lt;span style=&quot;white-space: pre;&quot;&gt;&#x9;&lt;/span&gt;&lt;span style=&quot;white-space: pre;&quot;&gt;&#x9;&lt;/span&gt;&lt;span style=&quot;white-space: pre;&quot;&gt;&#x9;&lt;/span&gt;&lt;span style=&quot;white-space: pre;&quot;&gt;&#x9;&lt;/span&gt;&lt;span style=&quot;white-space: pre;&quot;&gt;&#x9;&lt;/span&gt;&lt;span style=&quot;white-space: pre;&quot;&gt;&#x9;&lt;/span&gt;&lt;span style=&quot;white-space: pre;&quot;&gt;&#x9;&lt;/span&gt;&lt;span style=&quot;white-space: pre;&quot;&gt;&#x9;&lt;/span&gt;&lt;span style=&quot;white-space: pre;&quot;&gt;&#x9;&lt;/span&gt;&lt;span style=&quot;white-space: pre;&quot;&gt;&#x9;&lt;/span&gt;&lt;span style=&quot;white-space: pre;&quot;&gt;&#x9;&lt;/span&gt;&lt;span style=&quot;white-space: pre;&quot;&gt;&#x9;&lt;/span&gt;&lt;span style=&quot;white-space: pre;&quot;&gt;&#x9;&lt;/span&gt;&lt;span style=&quot;white-space: pre;&quot;&gt;&#x9;&lt;/span&gt;&amp;nbsp;&amp;nbsp;&lt;b&gt;Firebase&lt;/b&gt;&lt;br&gt;&lt;/div&gt;" style="verticalAlign=top;align=left;spacingTop=8;spacingLeft=2;spacingRight=12;shape=cube;size=10;direction=south;fontStyle=4;html=1;whiteSpace=wrap;" parent="1" vertex="1">
          <mxGeometry y="320" width="900" height="390" as="geometry" />
        </mxCell>
        <mxCell id="WcYQvjiLwowIPPXUkftp-14" value="&amp;lt;&amp;lt;execution enviroment&amp;gt;&amp;gt;&lt;div&gt;&lt;b&gt;Docker Container&lt;/b&gt;&lt;/div&gt;" style="verticalAlign=top;align=left;spacingTop=8;spacingLeft=2;spacingRight=12;shape=cube;size=10;direction=south;fontStyle=4;html=1;whiteSpace=wrap;" parent="1" vertex="1">
          <mxGeometry x="20" y="380" width="210" height="170" as="geometry" />
        </mxCell>
        <mxCell id="WcYQvjiLwowIPPXUkftp-15" value="&amp;lt;&amp;lt;artifact&amp;gt;&amp;gt;&lt;br&gt;&lt;br&gt;&lt;b&gt;Laravel Backend&lt;/b&gt;" style="html=1;align=center;verticalAlign=middle;dashed=0;whiteSpace=wrap;" parent="1" vertex="1">
          <mxGeometry x="35" y="460" width="180" height="60" as="geometry" />
        </mxCell>
        <mxCell id="WcYQvjiLwowIPPXUkftp-16" value="&amp;lt;&amp;lt;service&amp;gt;&amp;gt;&lt;div&gt;&lt;b&gt;FirestoreDB&lt;/b&gt;&lt;/div&gt;" style="verticalAlign=top;align=left;spacingTop=8;spacingLeft=2;spacingRight=12;shape=cube;size=10;direction=south;fontStyle=4;html=1;whiteSpace=wrap;" parent="1" vertex="1">
          <mxGeometry x="305" y="400" width="525" height="290" as="geometry" />
        </mxCell>
        <mxCell id="WcYQvjiLwowIPPXUkftp-17" value="&amp;lt;&amp;lt;schema&amp;gt;&amp;gt;&lt;br&gt;&lt;br&gt;&lt;b&gt;Korisnici&lt;/b&gt;" style="html=1;align=center;verticalAlign=middle;dashed=0;whiteSpace=wrap;" parent="1" vertex="1">
          <mxGeometry x="390" y="435" width="180" height="60" as="geometry" />
        </mxCell>
        <mxCell id="WcYQvjiLwowIPPXUkftp-18" value="&amp;lt;&amp;lt;schema&amp;gt;&amp;gt;&lt;br&gt;&lt;br&gt;&lt;b&gt;Vozila&lt;/b&gt;" style="html=1;align=center;verticalAlign=middle;dashed=0;whiteSpace=wrap;" parent="1" vertex="1">
          <mxGeometry x="550" y="510" width="180" height="60" as="geometry" />
        </mxCell>
        <mxCell id="WcYQvjiLwowIPPXUkftp-19" value="&amp;lt;&amp;lt;schema&amp;gt;&amp;gt;&lt;br&gt;&lt;br&gt;&lt;b&gt;NarudÅ¾be&lt;/b&gt;" style="html=1;align=center;verticalAlign=middle;dashed=0;whiteSpace=wrap;" parent="1" vertex="1">
          <mxGeometry x="325" y="610" width="180" height="60" as="geometry" />
        </mxCell>
        <mxCell id="WcYQvjiLwowIPPXUkftp-20" value="&amp;lt;&amp;lt;schema&amp;gt;&amp;gt;&lt;br&gt;&lt;br&gt;&lt;b&gt;Tiketi&lt;/b&gt;" style="html=1;align=center;verticalAlign=middle;dashed=0;whiteSpace=wrap;" parent="1" vertex="1">
          <mxGeometry x="530" y="590" width="180" height="60" as="geometry" />
        </mxCell>
        <mxCell id="WcYQvjiLwowIPPXUkftp-22" style="edgeStyle=orthogonalEdgeStyle;rounded=0;orthogonalLoop=1;jettySize=auto;html=1;exitX=0;exitY=0;exitDx=170;exitDy=110;exitPerimeter=0;entryX=0.001;entryY=0.345;entryDx=0;entryDy=0;entryPerimeter=0;endArrow=none;endFill=0;" parent="1" source="WcYQvjiLwowIPPXUkftp-9" target="WcYQvjiLwowIPPXUkftp-13" edge="1">
          <mxGeometry relative="1" as="geometry" />
        </mxCell>
        <mxCell id="WcYQvjiLwowIPPXUkftp-23" value="&amp;lt;&amp;lt;protocol&amp;gt;&amp;gt;&lt;div&gt;HTTPS&lt;/div&gt;" style="text;html=1;align=center;verticalAlign=middle;resizable=0;points=[];autosize=1;strokeColor=none;fillColor=none;" parent="1" vertex="1">
          <mxGeometry x="595" y="240" width="90" height="40" as="geometry" />
        </mxCell>
        <mxCell id="WcYQvjiLwowIPPXUkftp-24" value="" style="endArrow=open;dashed=1;html=1;dashPattern=1 3;strokeWidth=2;rounded=0;exitX=0;exitY=0;exitDx=80;exitDy=0;exitPerimeter=0;entryX=0;entryY=0.5;entryDx=0;entryDy=0;endFill=0;" parent="1" source="WcYQvjiLwowIPPXUkftp-14" target="WcYQvjiLwowIPPXUkftp-17" edge="1">
          <mxGeometry width="50" height="50" relative="1" as="geometry">
            <mxPoint x="320" y="520" as="sourcePoint" />
            <mxPoint x="370" y="470" as="targetPoint" />
          </mxGeometry>
        </mxCell>
        <mxCell id="WcYQvjiLwowIPPXUkftp-26" value="" style="endArrow=open;dashed=1;html=1;dashPattern=1 3;strokeWidth=2;rounded=0;exitX=0.656;exitY=0;exitDx=0;exitDy=0;exitPerimeter=0;endFill=0;" parent="1" source="WcYQvjiLwowIPPXUkftp-14" target="WcYQvjiLwowIPPXUkftp-18" edge="1">
          <mxGeometry width="50" height="50" relative="1" as="geometry">
            <mxPoint x="240" y="470" as="sourcePoint" />
            <mxPoint x="335" y="510" as="targetPoint" />
            <Array as="points" />
          </mxGeometry>
        </mxCell>
        <mxCell id="WcYQvjiLwowIPPXUkftp-27" value="" style="endArrow=open;dashed=1;html=1;dashPattern=1 3;strokeWidth=2;rounded=0;exitX=0.812;exitY=-0.011;exitDx=0;exitDy=0;exitPerimeter=0;endFill=0;entryX=0;entryY=0;entryDx=0;entryDy=0;" parent="1" source="WcYQvjiLwowIPPXUkftp-14" target="WcYQvjiLwowIPPXUkftp-20" edge="1">
          <mxGeometry width="50" height="50" relative="1" as="geometry">
            <mxPoint x="240" y="502" as="sourcePoint" />
            <mxPoint x="560" y="539" as="targetPoint" />
            <Array as="points" />
          </mxGeometry>
        </mxCell>
        <mxCell id="WcYQvjiLwowIPPXUkftp-28" value="" style="endArrow=open;dashed=1;html=1;dashPattern=1 3;strokeWidth=2;rounded=0;exitX=0;exitY=0;exitDx=165;exitDy=5;exitPerimeter=0;endFill=0;entryX=0;entryY=0;entryDx=0;entryDy=0;" parent="1" source="WcYQvjiLwowIPPXUkftp-14" target="WcYQvjiLwowIPPXUkftp-19" edge="1">
          <mxGeometry width="50" height="50" relative="1" as="geometry">
            <mxPoint x="250" y="512" as="sourcePoint" />
            <mxPoint x="570" y="549" as="targetPoint" />
            <Array as="points" />
          </mxGeometry>
        </mxCell>
      </root>
    </mxGraphModel>
  </diagram>
</mxfile>
